<svg width="14" height="15" viewBox="0 0 14 15" xmlns="http://www.w3.org/2000/svg"><title>Group</title><g fill="#D0011B" fill-rule="evenodd"><path d="M11.565 14.39h-9.13V2.827H11.565V14.39zM4.87 1h4.26v1.217H4.87V1zm8.826 1.217H9.74V.697c0-.17-.137-.306-.305-.306h-4.87c-.168 0-.304.138-.304.306v1.52H.305c-.168 0-.304.138-.304.306 0 .168.136.304.304.304h1.522v11.87c0 .168.136.304.304.304h9.74c.168 0 .304-.136.304-.304V2.826h1.522c.168 0 .304-.136.304-.304 0-.168-.136-.305-.304-.305z"/><path d="M4.565 4.652c-.168 0-.304.137-.304.305v7c0 .168.137.304.305.304.168 0 .305-.135.305-.303v-7c0-.168-.137-.305-.305-.305M7 4.652c-.168 0-.304.137-.304.305v7c0 .168.136.304.304.304.168 0 .304-.135.304-.303v-7c0-.168-.136-.305-.304-.305M9.13 4.957v7c0 .168.137.304.305.304.168 0 .304-.135.304-.303v-7c0-.168-.137-.305-.305-.305-.168 0-.305.137-.305.305"/></g></svg>