<svg width="14" height="16" viewBox="0 0 14 16" xmlns="http://www.w3.org/2000/svg"><title>Fill 103</title><path d="M12.567 3.947l-.713.776L9.66 2.335l.714-.775c.338-.368.888-.368 1.226 0l.967 1.052c.163.177.253.414.253.668 0 .253-.09.49-.253.667zm-8.52 9.273l-.288-.315v-1.313l5.926-6.45.892.97-6.53 7.108zm-3.08.37l.547.594-.788.264.242-.858zm2.383-2.443H2.144l-.29-.315 6.53-7.107.893.97-5.927 6.452zm-1.21 2.828l-.98-1.065.42-1.485.24.26c.054.058.127.09.204.09H3.18v1.26c0 .084.03.164.085.223l.24.26-1.366.457zm8.847-8.308L8.794 3.28l.458-.5 2.193 2.388-.458.5zm2.41-2.387c0-.422-.15-.817-.42-1.113l-.968-1.052c-.564-.614-1.482-.614-2.045 0L8.18 3.057 1.24 10.61c-.03.034-.05.076-.065.12 0 .003-.004.006-.006.01L.012 14.83c-.032.112-.004.233.072.316.055.06.128.092.204.092.028 0 .056-.005.084-.014l3.76-1.26c.002 0 .005-.004.008-.005.04-.016.078-.038.11-.073l6.94-7.553.867-.944.916-.998c.272-.296.422-.69.422-1.112z" fill="#9012FE" fill-rule="evenodd"/></svg>