<?xml version="1.0" encoding="UTF-8" standalone="no"?>
<svg width="14px" height="15px" viewBox="0 0 14 15" version="1.1" xmlns="http://www.w3.org/2000/svg" xmlns:xlink="http://www.w3.org/1999/xlink" xmlns:sketch="http://www.bohemiancoding.com/sketch/ns">
    <!-- Generator: Sketch 3.3.3 (12072) - http://www.bohemiancoding.com/sketch -->
    <title>Group</title>
    <desc>Created with Sketch.</desc>
    <defs></defs>
    <g id="Welcome" stroke="none" stroke-width="1" fill="none" fill-rule="evenodd" sketch:type="MSPage">
        <g id="Desktop-HD" sketch:type="MSArtboardGroup" transform="translate(-522.000000, -427.000000)" fill="#D0011B">
            <g id="Group" sketch:type="MSLayerGroup" transform="translate(522.000000, 426.391304)">
                <path d="M11.5652174,15 L2.43478261,15 L2.43478261,3.43478261 L4.56521739,3.43478261 L9.43478261,3.43478261 L11.5652174,3.43478261 L11.5652174,15 Z M4.86956522,1.60869565 L9.13043478,1.60869565 L9.13043478,2.82608696 L4.86956522,2.82608696 L4.86956522,1.60869565 Z M13.6956522,2.82608696 L11.8695652,2.82608696 L9.73913043,2.82608696 L9.73913043,1.30434783 C9.73913043,1.13634783 9.60278261,1 9.43478261,1 L4.56521739,1 C4.39721739,1 4.26086957,1.13634783 4.26086957,1.30434783 L4.26086957,2.82608696 L2.13043478,2.82608696 L0.304347826,2.82608696 C0.136347826,2.82608696 0,2.96243478 0,3.13043478 C0,3.29843478 0.136347826,3.43478261 0.304347826,3.43478261 L1.82608696,3.43478261 L1.82608696,15.3043478 C1.82608696,15.4723478 1.96243478,15.6086957 2.13043478,15.6086957 L11.8695652,15.6086957 C12.0375652,15.6086957 12.173913,15.4723478 12.173913,15.3043478 L12.173913,3.43478261 L13.6956522,3.43478261 C13.8636522,3.43478261 14,3.29843478 14,3.13043478 C14,2.96243478 13.8636522,2.82608696 13.6956522,2.82608696 L13.6956522,2.82608696 Z" id="Fill-94" sketch:type="MSShapeGroup"></path>
                <path d="M4.56521739,5.26086957 C4.39721739,5.26086957 4.26086957,5.39721739 4.26086957,5.56521739 L4.26086957,12.5652174 C4.26086957,12.7332174 4.39721739,12.8695652 4.56521739,12.8695652 C4.73321739,12.8695652 4.86956522,12.7332174 4.86956522,12.5652174 L4.86956522,5.56521739 C4.86956522,5.39721739 4.73321739,5.26086957 4.56521739,5.26086957" id="Fill-95" sketch:type="MSShapeGroup"></path>
                <path d="M7,5.26086957 C6.832,5.26086957 6.69565217,5.39721739 6.69565217,5.56521739 L6.69565217,12.5652174 C6.69565217,12.7332174 6.832,12.8695652 7,12.8695652 C7.168,12.8695652 7.30434783,12.7332174 7.30434783,12.5652174 L7.30434783,5.56521739 C7.30434783,5.39721739 7.168,5.26086957 7,5.26086957" id="Fill-96" sketch:type="MSShapeGroup"></path>
                <path d="M9.13043478,5.56521739 L9.13043478,12.5652174 C9.13043478,12.7332174 9.26678261,12.8695652 9.43478261,12.8695652 C9.60278261,12.8695652 9.73913043,12.7332174 9.73913043,12.5652174 L9.73913043,5.56521739 C9.73913043,5.39721739 9.60278261,5.26086957 9.43478261,5.26086957 C9.26678261,5.26086957 9.13043478,5.39721739 9.13043478,5.56521739" id="Fill-97" sketch:type="MSShapeGroup"></path>
            </g>
        </g>
    </g>
</svg>