<?xml version="1.0" encoding="UTF-8" standalone="no"?>
<svg width="14px" height="16px" viewBox="0 0 14 16" version="1.1" xmlns="http://www.w3.org/2000/svg" xmlns:xlink="http://www.w3.org/1999/xlink" xmlns:sketch="http://www.bohemiancoding.com/sketch/ns">
    <!-- Generator: Sketch 3.3.3 (12072) - http://www.bohemiancoding.com/sketch -->
    <title>Fill 103</title>
    <desc>Created with Sketch.</desc>
    <defs></defs>
    <g id="Welcome" stroke="none" stroke-width="1" fill="none" fill-rule="evenodd" sketch:type="MSPage">
        <g id="Desktop-HD" sketch:type="MSArtboardGroup" transform="translate(-444.000000, -427.000000)" fill="#9012FE">
            <g id="Fill-103-+-Edit" sketch:type="MSLayerGroup" transform="translate(444.000000, 424.000000)">
                <g id="Fill-103" transform="translate(0.000000, 3.000000)" sketch:type="MSShapeGroup">
                    <path d="M12.5668809,3.94701284 L11.8541743,4.72274783 L9.66112,2.3354352 L10.3735374,1.55970021 C10.7115309,1.19150145 11.2617461,1.19150145 11.6003178,1.55970021 L12.5668809,2.61205631 C12.7296613,2.7892323 12.8195809,3.02620124 12.8195809,3.27953458 C12.8195809,3.53286791 12.7296613,3.76983685 12.5668809,3.94701284 L12.5668809,3.94701284 Z M4.04794174,13.2196422 L3.7588113,12.9049424 L3.7588113,11.5923296 L9.68598522,5.14066915 L10.5779526,6.11183271 L4.04794174,13.2196422 Z M0.968413478,13.5903586 L1.51400261,14.1838824 L0.726122174,14.4479155 L0.968413478,13.5903586 Z M3.34998087,11.1470294 L2.1437287,11.1470294 L1.85459826,10.8323296 L8.38489826,3.72452008 L9.27686565,4.69568364 L3.34998087,11.1470294 Z M2.13939174,13.974607 L1.16097435,12.9096629 L1.58079174,11.4245946 L1.81961348,11.6842219 C1.87368087,11.7430708 1.94740913,11.776429 2.0240287,11.776429 L3.18055043,11.776429 L3.18055043,13.0352282 C3.18055043,13.1186236 3.21090913,13.1985573 3.26526565,13.2577209 L3.50379826,13.5173482 L2.13939174,13.974607 Z M10.9870722,5.6668472 L8.7937287,3.27953458 L9.25200043,2.7804207 L11.4453439,5.16773333 L10.9870722,5.6668472 Z M13.3978417,3.27953458 C13.3978417,2.85815155 13.247783,2.46320331 12.9757113,2.16707081 L12.0091483,1.1147147 C11.445633,0.501364803 10.5282222,0.501364803 9.96470696,1.1147147 L8.18048304,3.05704182 L1.24135261,10.6098369 C1.20925913,10.6444538 1.18873087,10.6859942 1.17485261,10.7297375 C1.17369609,10.7331992 1.17051565,10.7357168 1.16935913,10.7398079 L0.0128373913,14.8309052 C-0.0186778261,14.9423089 0.00878956522,15.0634683 0.0848308696,15.1459197 C0.139765652,15.2057126 0.213493913,15.2381267 0.289246087,15.2381267 C0.31758087,15.2381267 0.346204783,15.2334062 0.373961304,15.2242799 L4.13265696,13.9654807 C4.13641565,13.9642219 4.1387287,13.9604455 4.14219826,13.9591867 C4.18209826,13.9443959 4.22026348,13.9220522 4.25235696,13.8871205 L11.1914874,6.33432547 L12.0585896,5.39022609 L12.0588787,5.39022609 L12.9757113,4.39199834 C13.247783,4.09586584 13.3978417,3.7009176 13.3978417,3.27953458 L13.3978417,3.27953458 Z"></path>
                </g>
            </g>
        </g>
    </g>
</svg>